<?xml version="1.0" encoding="UTF-8" standalone="no"?><!DOCTYPE svg PUBLIC "-//W3C//DTD SVG 1.1//EN" "http://www.w3.org/Graphics/SVG/1.1/DTD/svg11.dtd"><svg width="100%" height="100%" viewBox="0 0 120 120" version="1.1" xmlns="http://www.w3.org/2000/svg" xmlns:xlink="http://www.w3.org/1999/xlink" xml:space="preserve" xmlns:serif="http://www.serif.com/" style="fill-rule:evenodd;clip-rule:evenodd;stroke-linejoin:round;stroke-miterlimit:2;"><path d="M120,28l0,64c0,15.454 -12.546,28 -28,28l-64,0c-15.454,0 -28,-12.546 -28,-28l0,-64c0,-15.454 12.546,-28 28,-28l64,0c15.454,0 28,12.546 28,28Z" style="fill:#1c1916;"/><g><path d="M28.334,82.93l0,-8.277l34.049,0l0,8.277l-34.049,0Zm-0.695,-35.486l0,-9.538l15.224,0l0,9.538l-15.224,0Zm8.235,34.662l0,-29.046c0,-1.878 0.299,-3.235 0.897,-4.069c0.598,-0.834 1.654,-1.35 3.168,-1.548l-4.065,-2.997l0,-6.541l9.489,0l0.766,12.235c0.583,-2.767 1.56,-5.127 2.932,-7.08c1.372,-1.953 3.039,-3.446 5,-4.479c1.962,-1.033 4.085,-1.55 6.369,-1.55c3.865,0 6.825,1.551 8.881,4.654c2.056,3.102 2.963,7.695 2.722,13.777l-10.105,0c-0.039,-3.01 -0.522,-5.182 -1.45,-6.517c-0.928,-1.334 -2.413,-2.001 -4.455,-2.001c-1.851,0 -3.658,0.559 -5.421,1.677c-1.762,1.118 -3.05,2.493 -3.863,4.126l0,17.018c0,1.363 -0.245,2.455 -0.736,3.276c-0.491,0.821 -1.205,1.357 -2.143,1.609l2.88,2.04l0.073,5.413l-10.939,0Z" style="fill:#f3eee7;fill-rule:nonzero;"/></g><path d="M94,40l0,40c0,1.656 -1.344,3 -3,3l-10,0c-1.656,0 -3,-1.344 -3,-3l0,-40c0,-1.656 1.344,-3 3,-3l10,0c1.656,0 3,1.344 3,3Z" style="fill:#cf9f63;"/></svg>